# Blender v2.56 (sub 0) OBJ File: 'LightShapes.blend'
# www.blender.org
mtllib LightShapes.mtl
o Cube
v 1.000000 1.000000 -1.000000
v 1.000000 -1.000000 -1.000000
v -1.000000 -1.000000 -1.000000
v -1.000000 1.000000 -1.000000
v 1.000000 1.000000 1.000000
v 1.000000 -1.000001 1.000000
v -1.000000 -1.000000 1.000000
v -1.000000 1.000000 1.000000
vt 0.000000 0.000000
vt 1.000000 0.000000
vt 1.000000 1.000000
vt 0.000000 1.000000
vn 0.000000 1.000000 0.000000
vn -1.000000 0.000000 -0.000000
vn -0.000000 -1.000000 -0.000000
vn 1.000000 0.000000 -0.000000
vn 1.000000 -0.000001 0.000000
vn -0.000000 -0.000000 1.000000
vn 0.000000 0.000000 -1.000000
usemtl (null)
s off
f 5/1/1 1/2/1 4/3/1
f 5/1/1 4/3/1 8/4/1
f 3/1/2 7/2/2 8/3/2
f 3/1/2 8/3/2 4/4/2
f 2/1/3 6/2/3 3/4/3
f 6/2/3 7/3/3 3/4/3
f 1/1/4 5/2/4 2/4/4
f 5/2/5 6/3/5 2/4/5
f 5/1/6 8/2/6 6/4/6
f 8/2/6 7/3/6 6/4/6
f 1/1/7 2/2/7 3/3/7
f 1/1/7 3/3/7 4/4/7
o Sphere
v 0.000000 0.000000 -0.990000
v 0.723600 -0.525720 -0.437215
v -0.276385 -0.850640 -0.437215
v -0.894425 0.000000 -0.437215
v -0.276385 0.850640 -0.437215
v 0.723600 0.525720 -0.437215
v 0.276385 -0.850640 0.457215
v -0.723600 -0.525720 0.457215
v -0.723600 0.525720 0.457215
v 0.276385 0.850640 0.457215
v 0.894425 0.000000 0.457215
v 0.000000 0.000000 1.010000
v 0.425323 -0.309011 -0.840654
v -0.162456 -0.499995 -0.840654
v 0.262869 -0.809012 -0.515738
v 0.425323 0.309011 -0.840654
v 0.850648 0.000000 -0.515736
v -0.525730 0.000000 -0.840652
v -0.688189 -0.499997 -0.515736
v -0.162456 0.499995 -0.840654
v -0.688189 0.499997 -0.515736
v 0.262869 0.809012 -0.515738
v 0.951058 0.309013 0.010000
v 0.951058 -0.309013 0.010000
v 0.587786 -0.809017 0.010000
v 0.000000 -1.000000 0.010000
v -0.587786 -0.809017 0.010000
v -0.951058 -0.309013 0.010000
v -0.951058 0.309013 0.010000
v -0.587786 0.809017 0.010000
v 0.000000 1.000000 0.010000
v 0.587786 0.809017 0.010000
v 0.688189 -0.499997 0.535736
v -0.262869 -0.809012 0.535738
v -0.850648 0.000000 0.535736
v -0.262869 0.809012 0.535738
v 0.688189 0.499997 0.535736
v 0.525730 0.000000 0.860652
v 0.162456 -0.499995 0.860654
v -0.425323 -0.309011 0.860654
v -0.425323 0.309011 0.860654
v 0.162456 0.499995 0.860654
vt 0.000000 0.000000
vt 1.000000 0.000000
vt 1.000000 1.000000
vn 0.471317 -0.583121 -0.661687
vn 0.187594 -0.577345 -0.794658
vn -0.038547 -0.748789 -0.661687
vn 0.102381 -0.315090 -0.943523
vn 0.700228 -0.268049 -0.661688
vn 0.607060 -0.000000 -0.794656
vn 0.700228 0.268049 -0.661687
vn 0.331305 -0.000000 -0.943524
vn -0.408939 -0.628443 -0.661686
vn -0.491119 -0.356821 -0.794657
vn -0.724044 -0.194734 -0.661694
vn -0.268034 -0.194737 -0.943523
vn -0.724044 0.194734 -0.661694
vn -0.491119 0.356821 -0.794657
vn -0.408939 0.628443 -0.661686
vn -0.268034 0.194737 -0.943523
vn -0.038547 0.748789 -0.661687
vn 0.187594 0.577345 -0.794658
vn 0.471318 0.583121 -0.661687
vn 0.102381 0.315090 -0.943523
vn 0.904981 -0.268049 -0.330393
vn 0.982246 0.000000 -0.187599
vn 0.992077 0.000000 0.125631
vn 0.904981 0.268049 -0.330393
vn 0.024726 -0.943519 -0.330395
vn 0.303531 -0.934171 -0.187597
vn 0.306568 -0.943519 0.125651
vn 0.534590 -0.777851 -0.330395
vn -0.889698 -0.315092 -0.330386
vn -0.794656 -0.577348 -0.187595
vn -0.802607 -0.583125 0.125648
vn -0.574584 -0.748793 -0.330397
vn -0.574584 0.748793 -0.330397
vn -0.794656 0.577348 -0.187595
vn -0.802607 0.583125 0.125648
vn -0.889698 0.315092 -0.330386
vn 0.534590 0.777851 -0.330395
vn 0.303531 0.934171 -0.187597
vn 0.306568 0.943519 0.125651
vn 0.024726 0.943519 -0.330395
vn 0.889698 -0.315092 0.330386
vn 0.794656 -0.577348 0.187595
vn 0.574584 -0.748793 0.330397
vn 0.802607 -0.583125 -0.125648
vn -0.024726 -0.943519 0.330395
vn -0.303531 -0.934171 0.187597
vn -0.534590 -0.777851 0.330395
vn -0.306568 -0.943519 -0.125651
vn -0.904981 -0.268049 0.330393
vn -0.982246 0.000000 0.187599
vn -0.904981 0.268049 0.330393
vn -0.992077 0.000000 -0.125631
vn -0.534590 0.777851 0.330395
vn -0.303531 0.934171 0.187597
vn -0.024726 0.943519 0.330395
vn -0.306568 0.943519 -0.125651
vn 0.574584 0.748793 0.330397
vn 0.794656 0.577348 0.187595
vn 0.889698 0.315092 0.330386
vn 0.802607 0.583125 -0.125648
vn 0.408939 -0.628443 0.661686
vn 0.491119 -0.356821 0.794657
vn 0.268034 -0.194736 0.943523
vn 0.724044 -0.194734 0.661694
vn -0.471317 -0.583121 0.661687
vn -0.187594 -0.577345 0.794658
vn -0.102381 -0.315090 0.943523
vn 0.038547 -0.748789 0.661687
vn -0.700228 0.268049 0.661688
vn -0.607060 0.000000 0.794656
vn -0.331305 0.000000 0.943524
vn -0.700228 -0.268049 0.661688
vn 0.038547 0.748789 0.661687
vn -0.187594 0.577345 0.794658
vn -0.102381 0.315090 0.943523
vn -0.471318 0.583121 0.661687
vn 0.724044 0.194734 0.661694
vn 0.491119 0.356821 0.794657
vn 0.268034 0.194737 0.943523
vn 0.408939 0.628443 0.661686
usemtl (null)
s off
f 23/5/8 21/6/8 10/7/8
f 21/5/9 23/6/9 22/7/9
f 11/5/10 22/6/10 23/7/10
f 22/5/11 9/6/11 21/7/11
f 25/5/12 10/6/12 21/7/12
f 21/5/13 24/6/13 25/7/13
f 14/5/14 25/6/14 24/7/14
f 21/5/15 9/6/15 24/7/15
f 27/5/16 22/6/16 11/7/16
f 22/5/17 27/6/17 26/7/17
f 12/5/18 26/6/18 27/7/18
f 26/5/19 9/6/19 22/7/19
f 29/5/20 26/6/20 12/7/20
f 26/5/21 29/6/21 28/7/21
f 13/5/22 28/6/22 29/7/22
f 28/5/23 9/6/23 26/7/23
f 30/5/24 28/6/24 13/7/24
f 28/5/25 30/6/25 24/7/25
f 14/5/26 24/6/26 30/7/26
f 24/5/27 9/6/27 28/7/27
f 32/5/28 10/6/28 25/7/28
f 25/5/29 31/6/29 32/7/29
f 19/5/30 32/6/30 31/7/30
f 31/5/31 25/6/31 14/7/31
f 34/5/32 11/6/32 23/7/32
f 23/5/33 33/6/33 34/7/33
f 15/5/34 34/6/34 33/7/34
f 33/5/35 23/6/35 10/7/35
f 36/5/36 12/6/36 27/7/36
f 27/5/37 35/6/37 36/7/37
f 16/5/38 36/6/38 35/7/38
f 35/5/39 27/6/39 11/7/39
f 38/5/40 13/6/40 29/7/40
f 29/5/41 37/6/41 38/7/41
f 17/5/42 38/6/42 37/7/42
f 37/5/43 29/6/43 12/7/43
f 40/5/44 14/6/44 30/7/44
f 30/5/45 39/6/45 40/7/45
f 18/5/46 40/6/46 39/7/46
f 39/5/47 30/6/47 13/7/47
f 41/5/48 32/6/48 19/7/48
f 32/5/49 41/6/49 33/7/49
f 15/5/50 33/6/50 41/7/50
f 33/5/51 10/6/51 32/7/51
f 42/5/52 34/6/52 15/7/52
f 34/5/53 42/6/53 35/7/53
f 16/5/54 35/6/54 42/7/54
f 35/5/55 11/6/55 34/7/55
f 43/5/56 36/6/56 16/7/56
f 36/5/57 43/6/57 37/7/57
f 17/5/58 37/6/58 43/7/58
f 37/5/59 12/6/59 36/7/59
f 44/5/60 38/6/60 17/7/60
f 38/5/61 44/6/61 39/7/61
f 18/5/62 39/6/62 44/7/62
f 39/5/63 13/6/63 38/7/63
f 45/5/64 40/6/64 18/7/64
f 40/5/65 45/6/65 31/7/65
f 19/5/66 31/6/66 45/7/66
f 31/5/67 14/6/67 40/7/67
f 47/5/68 15/6/68 41/7/68
f 41/5/69 46/6/69 47/7/69
f 20/5/70 47/6/70 46/7/70
f 46/5/71 41/6/71 19/7/71
f 48/5/72 16/6/72 42/7/72
f 42/5/73 47/6/73 48/7/73
f 20/5/74 48/6/74 47/7/74
f 47/5/75 42/6/75 15/7/75
f 49/5/76 17/6/76 43/7/76
f 43/5/77 48/6/77 49/7/77
f 20/5/78 49/6/78 48/7/78
f 48/5/79 43/6/79 16/7/79
f 50/5/80 18/6/80 44/7/80
f 44/5/81 49/6/81 50/7/81
f 20/5/82 50/6/82 49/7/82
f 49/5/83 44/6/83 17/7/83
f 46/5/84 19/6/84 45/7/84
f 45/5/85 50/6/85 46/7/85
f 20/5/86 46/6/86 50/7/86
f 50/5/87 45/6/87 18/7/87
o Cone
v 0.000000 -1.000000 1.000000
v 0.500000 -0.866026 1.000000
v 0.866025 -0.500000 1.000000
v 1.000000 -0.000000 1.000000
v 0.866025 0.500000 1.000000
v 0.500000 0.866025 1.000000
v 0.000000 1.000000 1.000000
v -0.500000 0.866025 1.000000
v -0.866025 0.500000 1.000000
v -1.000000 0.000000 1.000000
v -0.866026 -0.500000 1.000000
v -0.500001 -0.866025 1.000000
v 0.000000 0.000000 0.000000
v 0.000000 -0.000000 1.000000
vt 0.000000 0.000000
vt 1.000000 0.000000
vt 1.000000 1.000000
vn 0.186157 -0.694746 -0.694747
vn 0.508590 -0.508590 -0.694747
vn 0.694747 -0.186157 -0.694747
vn 0.694747 0.186157 -0.694747
vn 0.508590 0.508590 -0.694746
vn 0.186157 0.694747 -0.694746
vn -0.186157 0.694747 -0.694746
vn -0.508590 0.508590 -0.694746
vn -0.694746 0.186157 -0.694747
vn -0.694747 -0.186156 -0.694747
vn -0.508590 -0.508589 -0.694747
vn -0.186157 -0.694746 -0.694747
usemtl (null)
s off
f 52/8/88 51/9/88 63/10/88
f 63/8/89 53/9/89 52/10/89
f 63/8/90 54/9/90 53/10/90
f 63/8/91 55/9/91 54/10/91
f 63/8/92 56/9/92 55/10/92
f 63/8/93 57/9/93 56/10/93
f 63/8/94 58/9/94 57/10/94
f 63/8/95 59/9/95 58/10/95
f 63/8/96 60/9/96 59/10/96
f 63/8/97 61/9/97 60/10/97
f 63/8/98 62/9/98 61/10/98
f 63/8/99 51/9/99 62/10/99
f 64/8/6 51/9/6 52/10/6
f 64/8/6 52/9/6 53/10/6
f 64/8/6 53/9/6 54/10/6
f 64/8/6 54/9/6 55/10/6
f 64/8/6 55/9/6 56/10/6
f 64/8/6 56/9/6 57/10/6
f 64/8/6 57/9/6 58/10/6
f 64/8/6 58/9/6 59/10/6
f 64/8/6 59/9/6 60/10/6
f 64/8/6 60/9/6 61/10/6
f 64/8/6 61/9/6 62/10/6
f 62/8/6 51/9/6 64/10/6
