# Blender v2.56 (sub 0) OBJ File: 'Plane.blend'
# www.blender.org
mtllib Plane2.mtl
o Plane
v 8.000000 -0.000000 -7.999999
v 8.000000 0.000000 8.000001
v -8.000002 0.000000 7.999999
v -7.999997 -0.000000 -8.000002
v -0.000001 0.000000 8.000000
v 8.000000 0.000000 0.000001
v 0.000001 -0.000000 -8.000000
v -8.000000 -0.000000 -0.000001
v 0.000000 0.000000 0.000000
v 3.999999 0.000000 8.000000
v -4.000002 0.000000 8.000000
v 8.000000 -0.000000 -3.999999
v 8.000000 0.000000 4.000001
v 4.000000 -0.000000 -8.000000
v -3.999998 -0.000000 -8.000001
v -8.000001 0.000000 3.999999
v -7.999998 -0.000000 -4.000001
v -0.000001 0.000000 4.000000
v -4.000000 -0.000000 -0.000000
v 0.000001 -0.000000 -4.000000
v 4.000000 0.000000 0.000000
v -4.000001 0.000000 4.000000
v -3.999999 -0.000000 -4.000001
v 4.000000 0.000000 4.000000
v 4.000000 -0.000000 -4.000000
v 5.999999 0.000000 8.000000
v 1.999999 0.000000 8.000000
v -6.000002 0.000000 7.999999
v -2.000002 0.000000 8.000000
v 8.000000 -0.000000 -5.999999
v 8.000000 -0.000000 -1.999999
v 8.000000 0.000000 6.000001
v 8.000000 0.000000 2.000001
v 6.000000 -0.000000 -7.999999
v 2.000001 -0.000000 -8.000000
v -5.999998 -0.000000 -8.000002
v -1.999998 -0.000000 -8.000000
v -8.000002 0.000000 5.999999
v -8.000000 0.000000 1.999999
v -7.999998 -0.000000 -6.000002
v -7.999999 -0.000000 -2.000001
v -0.000000 0.000000 2.000000
v -0.000001 0.000000 6.000000
v -6.000000 -0.000000 -0.000001
v -2.000000 -0.000000 -0.000000
v 0.000001 -0.000000 -6.000000
v 0.000000 -0.000000 -2.000000
v 6.000000 0.000000 0.000001
v 2.000000 0.000000 0.000000
v -4.000001 0.000000 6.000000
v -6.000001 0.000000 3.999999
v -4.000000 0.000000 2.000000
v -2.000001 0.000000 4.000000
v -3.999999 -0.000000 -2.000001
v -5.999999 -0.000000 -4.000001
v -3.999998 -0.000000 -6.000001
v -1.999999 -0.000000 -4.000000
v 3.999999 0.000000 6.000000
v 1.999999 0.000000 4.000000
v 4.000000 0.000000 2.000000
v 6.000000 0.000000 4.000000
v 4.000000 -0.000000 -2.000000
v 2.000000 -0.000000 -4.000000
v 4.000000 -0.000000 -6.000000
v 6.000000 -0.000000 -3.999999
v 6.000000 -0.000000 -5.999999
v 6.000000 -0.000000 -1.999999
v 2.000000 -0.000000 -6.000000
v 2.000000 -0.000000 -2.000000
v 6.000000 0.000000 2.000000
v 5.999999 0.000000 6.000000
v 2.000000 0.000000 2.000000
v 1.999999 0.000000 6.000000
v -1.999999 -0.000000 -6.000000
v -2.000000 -0.000000 -2.000000
v -5.999998 -0.000000 -6.000001
v -5.999999 -0.000000 -2.000001
v -2.000000 0.000000 2.000000
v -2.000001 0.000000 6.000000
v -6.000000 0.000000 1.999999
v -6.000002 0.000000 5.999999
vt 0.000000 0.000000
vt 1.000000 0.000000
vt 1.000000 1.000000
vt 0.000000 1.000000
vn 0.000000 1.000000 -0.000000
usemtl Metal
s off
f 34/1/1 14/2/1 64/3/1
f 34/1/1 64/3/1 66/4/1
f 1/1/1 34/2/1 66/3/1
f 1/1/1 66/3/1 30/4/1
f 66/1/1 64/2/1 25/3/1
f 66/1/1 25/3/1 65/4/1
f 30/1/1 66/2/1 65/3/1
f 30/1/1 65/3/1 12/4/1
f 62/1/1 21/2/1 48/3/1
f 62/1/1 48/3/1 67/4/1
f 25/1/1 62/2/1 67/3/1
f 25/1/1 67/3/1 65/4/1
f 67/1/1 48/2/1 6/3/1
f 67/1/1 6/3/1 31/4/1
f 65/1/1 67/2/1 31/3/1
f 65/1/1 31/3/1 12/4/1
f 63/1/1 25/2/1 64/3/1
f 63/1/1 64/3/1 68/4/1
f 20/1/1 63/2/1 68/3/1
f 20/1/1 68/3/1 46/4/1
f 68/1/1 64/2/1 14/3/1
f 68/1/1 14/3/1 35/4/1
f 46/1/1 68/2/1 35/3/1
f 46/1/1 35/3/1 7/4/1
f 49/1/1 21/2/1 62/3/1
f 49/1/1 62/3/1 69/4/1
f 9/1/1 49/2/1 69/3/1
f 9/1/1 69/3/1 47/4/1
f 69/1/1 62/2/1 25/3/1
f 69/1/1 25/3/1 63/4/1
f 47/1/1 69/2/1 63/3/1
f 47/1/1 63/3/1 20/4/1
f 60/1/1 24/2/1 61/3/1
f 60/1/1 61/3/1 70/4/1
f 21/1/1 60/2/1 70/3/1
f 21/1/1 70/3/1 48/4/1
f 70/1/1 61/2/1 13/3/1
f 70/1/1 13/3/1 33/4/1
f 48/1/1 70/2/1 33/3/1
f 48/1/1 33/3/1 6/4/1
f 58/1/1 10/2/1 26/3/1
f 58/1/1 26/3/1 71/4/1
f 24/1/1 58/2/1 71/3/1
f 24/1/1 71/3/1 61/4/1
f 71/1/1 26/2/1 2/3/1
f 71/1/1 2/3/1 32/4/1
f 61/1/1 71/2/1 32/3/1
f 61/1/1 32/3/1 13/4/1
f 59/1/1 24/2/1 60/3/1
f 59/1/1 60/3/1 72/4/1
f 18/1/1 59/2/1 72/3/1
f 18/1/1 72/3/1 42/4/1
f 72/1/1 60/2/1 21/3/1
f 72/1/1 21/3/1 49/4/1
f 42/1/1 72/2/1 49/3/1
f 42/1/1 49/3/1 9/4/1
f 27/1/1 10/2/1 58/3/1
f 27/1/1 58/3/1 73/4/1
f 5/1/1 27/2/1 73/3/1
f 5/1/1 73/3/1 43/4/1
f 73/1/1 58/2/1 24/3/1
f 73/1/1 24/3/1 59/4/1
f 43/1/1 73/2/1 59/3/1
f 43/1/1 59/3/1 18/4/1
f 57/1/1 20/2/1 46/3/1
f 57/1/1 46/3/1 74/4/1
f 23/1/1 57/2/1 74/3/1
f 23/1/1 74/3/1 56/4/1
f 74/1/1 46/2/1 7/3/1
f 74/1/1 7/3/1 37/4/1
f 56/1/1 74/2/1 37/3/1
f 56/1/1 37/3/1 15/4/1
f 45/1/1 9/2/1 47/3/1
f 45/1/1 47/3/1 75/4/1
f 19/1/1 45/2/1 75/3/1
f 19/1/1 75/3/1 54/4/1
f 75/1/1 47/2/1 20/3/1
f 75/1/1 20/3/1 57/4/1
f 54/1/1 75/2/1 57/3/1
f 54/1/1 57/3/1 23/4/1
f 55/1/1 23/2/1 56/3/1
f 55/1/1 56/3/1 76/4/1
f 17/1/1 55/2/1 76/3/1
f 17/1/1 76/3/1 40/4/1
f 76/1/1 56/2/1 15/3/1
f 76/1/1 15/3/1 36/4/1
f 40/1/1 76/2/1 36/3/1
f 40/1/1 36/3/1 4/4/1
f 44/1/1 19/2/1 54/3/1
f 44/1/1 54/3/1 77/4/1
f 8/1/1 44/2/1 77/3/1
f 8/1/1 77/3/1 41/4/1
f 77/1/1 54/2/1 23/3/1
f 77/1/1 23/3/1 55/4/1
f 41/1/1 77/2/1 55/3/1
f 41/1/1 55/3/1 17/4/1
f 53/1/1 18/2/1 42/3/1
f 53/1/1 42/3/1 78/4/1
f 22/1/1 53/2/1 78/3/1
f 22/1/1 78/3/1 52/4/1
f 78/1/1 42/2/1 9/3/1
f 78/1/1 9/3/1 45/4/1
f 52/1/1 78/2/1 45/3/1
f 52/1/1 45/3/1 19/4/1
f 29/1/1 5/2/1 43/3/1
f 29/1/1 43/3/1 79/4/1
f 11/1/1 29/2/1 79/3/1
f 11/1/1 79/3/1 50/4/1
f 79/1/1 43/2/1 18/3/1
f 79/1/1 18/3/1 53/4/1
f 50/1/1 79/2/1 53/3/1
f 50/1/1 53/3/1 22/4/1
f 51/1/1 22/2/1 52/3/1
f 51/1/1 52/3/1 80/4/1
f 16/1/1 51/2/1 80/3/1
f 16/1/1 80/3/1 39/4/1
f 80/1/1 52/2/1 19/3/1
f 80/1/1 19/3/1 44/4/1
f 39/1/1 80/2/1 44/3/1
f 39/1/1 44/3/1 8/4/1
f 28/1/1 11/2/1 50/3/1
f 28/1/1 50/3/1 81/4/1
f 3/1/1 28/2/1 81/3/1
f 3/1/1 81/3/1 38/4/1
f 81/1/1 50/2/1 22/3/1
f 81/1/1 22/3/1 51/4/1
f 38/1/1 81/2/1 51/3/1
f 38/1/1 51/3/1 16/4/1
