# Blender v2.56 (sub 0) OBJ File: 'Plane.blend'
# www.blender.org
mtllib Plane.mtl
o Plane
v 8.000000 -0.000000 -7.999999
v 8.000000 0.000000 8.000001
v -8.000002 0.000000 7.999999
v -7.999997 -0.000000 -8.000002
v -0.000001 0.000000 8.000000
v 8.000000 0.000000 0.000001
v 0.000001 -0.000000 -8.000000
v -8.000000 -0.000000 -0.000001
v 0.000000 0.000000 0.000000
v 3.999999 0.000000 8.000000
v -4.000002 0.000000 8.000000
v 8.000000 -0.000000 -3.999999
v 8.000000 0.000000 4.000001
v 4.000000 -0.000000 -8.000000
v -3.999998 -0.000000 -8.000001
v -8.000001 0.000000 3.999999
v -7.999998 -0.000000 -4.000001
v -0.000001 0.000000 4.000000
v -4.000000 -0.000000 -0.000000
v 0.000001 -0.000000 -4.000000
v 4.000000 0.000000 0.000000
v -4.000001 0.000000 4.000000
v -3.999999 -0.000000 -4.000001
v 4.000000 0.000000 4.000000
v 4.000000 -0.000000 -4.000000
vt 0.250000 0.000000
vt 0.250000 0.250000
vt 0.000000 0.250000
vt 0.000000 0.000000
vt 0.250000 0.500000
vt 0.000000 0.500000
vt 0.500000 0.000000
vt 0.500000 0.250000
vt 0.500000 0.500000
vt 0.250000 0.750000
vt 0.000000 0.750000
vt 0.250000 1.000000
vt 0.000000 1.000000
vt 0.500000 0.750000
vt 0.500000 1.000000
vt 0.750000 0.000000
vt 0.750000 0.250000
vt 0.750000 0.500000
vt 1.000000 0.000000
vt 1.000000 0.250000
vt 1.000000 0.500000
vt 0.750000 0.750000
vt 0.750000 1.000000
vt 1.000000 0.750000
vt 1.000000 1.000000
vn -0.000000 1.000000 -0.000000
usemtl Metal
s off
f 14/1/1 25/2/1 12/3/1
f 12/3/1 1/4/1 14/1/1
f 25/2/1 21/5/1 12/3/1
f 21/5/1 6/6/1 12/3/1
f 7/7/1 20/8/1 25/2/1
f 7/7/1 25/2/1 14/1/1
f 20/8/1 9/9/1 21/5/1
f 20/8/1 21/5/1 25/2/1
f 21/5/1 24/10/1 6/6/1
f 24/10/1 13/11/1 6/6/1
f 24/10/1 10/12/1 13/11/1
f 10/12/1 2/13/1 13/11/1
f 9/9/1 18/14/1 24/10/1
f 9/9/1 24/10/1 21/5/1
f 18/14/1 5/15/1 10/12/1
f 18/14/1 10/12/1 24/10/1
f 15/16/1 23/17/1 20/8/1
f 15/16/1 20/8/1 7/7/1
f 23/17/1 19/18/1 9/9/1
f 23/17/1 9/9/1 20/8/1
f 4/19/1 17/20/1 23/17/1
f 4/19/1 23/17/1 15/16/1
f 17/20/1 8/21/1 19/18/1
f 17/20/1 19/18/1 23/17/1
f 19/18/1 22/22/1 18/14/1
f 19/18/1 18/14/1 9/9/1
f 22/22/1 11/23/1 5/15/1
f 22/22/1 5/15/1 18/14/1
f 8/21/1 16/24/1 22/22/1
f 8/21/1 22/22/1 19/18/1
f 16/24/1 3/25/1 11/23/1
f 16/24/1 11/23/1 22/22/1
