# Blender v2.69 (sub 0) OBJ File: 'Shield.blend'
# www.blender.org
mtllib Shield.mtl
o Icosphere_Icosphere.001
v 0.000000 0.000000 -0.925327
v 0.669572 -0.486468 -0.413823
v -0.255750 -0.787127 -0.413823
v -0.827636 0.000000 -0.413820
v -0.255750 0.787127 -0.413823
v 0.669572 0.486468 -0.413823
v 0.255750 -0.787127 0.413823
v -0.669572 -0.486468 0.413823
v -0.669572 0.486468 0.413823
v 0.255750 0.787127 0.413823
v 0.827636 0.000000 0.413820
v -0.000000 -0.000000 0.925327
v -0.148071 -0.455720 -0.775327
v 0.387661 -0.281649 -0.775327
v 0.239590 -0.737372 -0.479181
v 0.775322 0.000000 -0.479180
v 0.387661 0.281649 -0.775327
v -0.479175 0.000000 -0.775326
v -0.627248 -0.455721 -0.479180
v -0.148071 0.455720 -0.775327
v -0.627248 0.455721 -0.479180
v 0.239590 0.737372 -0.479181
v 0.866838 -0.281650 -0.000000
v 0.866838 0.281650 -0.000000
v 0.000000 -0.911446 0.000000
v 0.535735 -0.737375 -0.000000
v -0.866838 -0.281650 0.000000
v -0.535735 -0.737375 0.000000
v -0.535735 0.737375 0.000000
v -0.866838 0.281650 0.000000
v 0.535735 0.737375 -0.000000
v 0.000000 0.911446 0.000000
v 0.627248 -0.455721 0.479180
v -0.239590 -0.737372 0.479181
v -0.775322 0.000000 0.479180
v -0.239590 0.737372 0.479181
v 0.627248 0.455721 0.479180
v 0.148071 -0.455720 0.775327
v 0.479175 0.000000 0.775326
v -0.387661 -0.281649 0.775327
v -0.387661 0.281649 0.775327
v 0.148071 0.455720 0.775327
vt 0.000000 0.000000
vt 1.000000 0.000000
vt 1.000000 1.000000
vn 0.000000 0.000000 -0.999969
vn 0.425306 -0.309000 -0.850642
vn -0.162450 -0.499985 -0.850642
vn 0.723594 -0.525712 -0.447188
vn 0.850642 0.000000 -0.525712
vn -0.525712 0.000000 -0.850642
vn -0.162450 0.499985 -0.850642
vn 0.425306 0.309000 -0.850642
vn 0.951048 -0.309000 0.000000
vn -0.276376 -0.850642 -0.447188
vn 0.262856 -0.809015 -0.525712
vn 0.000000 -1.000000 0.000000
vn -0.894406 0.000000 -0.447188
vn -0.688162 -0.499985 -0.525712
vn -0.951048 -0.309000 0.000000
vn -0.276376 0.850642 -0.447188
vn -0.688162 0.499985 -0.525712
vn -0.587756 0.809015 0.000000
vn 0.723594 0.525712 -0.447188
vn 0.262856 0.809015 -0.525712
vn 0.587756 0.809015 0.000000
vn 0.587756 -0.809015 0.000000
vn -0.587756 -0.809015 0.000000
vn -0.951048 0.309000 0.000000
vn 0.000000 1.000000 0.000000
vn 0.951048 0.309000 0.000000
vn 0.276376 -0.850642 0.447188
vn 0.688162 -0.499985 0.525712
vn 0.162450 -0.499985 0.850642
vn -0.723594 -0.525712 0.447188
vn -0.262856 -0.809015 0.525712
vn -0.425306 -0.309000 0.850642
vn -0.723594 0.525712 0.447188
vn -0.850642 0.000000 0.525712
vn -0.425306 0.309000 0.850642
vn 0.276376 0.850642 0.447188
vn -0.262856 0.809015 0.525712
vn 0.162450 0.499985 0.850642
vn 0.894406 0.000000 0.447188
vn 0.688162 0.499985 0.525712
vn 0.525712 0.000000 0.850642
vn 0.000000 0.000000 0.999969
usemtl Material.001
s 1
f 1/1/1 14/2/2 13/3/3
f 2/1/4 14/2/2 16/3/5
f 1/1/1 13/2/3 18/3/6
f 1/1/1 18/2/6 20/3/7
f 1/1/1 20/2/7 17/3/8
f 2/1/4 16/2/5 23/3/9
f 3/1/10 15/2/11 25/3/12
f 4/1/13 19/2/14 27/3/15
f 5/1/16 21/2/17 29/3/18
f 6/1/19 22/2/20 31/3/21
f 2/1/4 23/2/9 26/3/22
f 3/1/10 25/2/12 28/3/23
f 4/1/13 27/2/15 30/3/24
f 5/1/16 29/2/18 32/3/25
f 6/1/19 31/2/21 24/3/26
f 7/1/27 33/2/28 38/3/29
f 8/1/30 34/2/31 40/3/32
f 9/1/33 35/2/34 41/3/35
f 10/1/36 36/2/37 42/3/38
f 11/1/39 37/2/40 39/3/41
f 13/1/3 15/2/11 3/3/10
f 13/1/3 14/2/2 15/3/11
f 14/1/2 2/2/4 15/3/11
f 16/1/5 17/2/8 6/3/19
f 16/1/5 14/2/2 17/3/8
f 14/1/2 1/2/1 17/3/8
f 18/1/6 19/2/14 4/3/13
f 18/1/6 13/2/3 19/3/14
f 13/1/3 3/2/10 19/3/14
f 20/1/7 21/2/17 5/3/16
f 20/1/7 18/2/6 21/3/17
f 18/1/6 4/2/13 21/3/17
f 17/1/8 22/2/20 6/3/19
f 17/1/8 20/2/7 22/3/20
f 20/1/7 5/2/16 22/3/20
f 23/1/9 24/2/26 11/3/39
f 23/1/9 16/2/5 24/3/26
f 16/1/5 6/2/19 24/3/26
f 25/1/12 26/2/22 7/3/27
f 25/1/12 15/2/11 26/3/22
f 15/1/11 2/2/4 26/3/22
f 27/1/15 28/2/23 8/3/30
f 27/1/15 19/2/14 28/3/23
f 19/1/14 3/2/10 28/3/23
f 29/1/18 30/2/24 9/3/33
f 29/1/18 21/2/17 30/3/24
f 21/1/17 4/2/13 30/3/24
f 31/1/21 32/2/25 10/3/36
f 31/1/21 22/2/20 32/3/25
f 22/1/20 5/2/16 32/3/25
f 26/1/22 33/2/28 7/3/27
f 26/1/22 23/2/9 33/3/28
f 23/1/9 11/2/39 33/3/28
f 28/1/23 34/2/31 8/3/30
f 28/1/23 25/2/12 34/3/31
f 25/1/12 7/2/27 34/3/31
f 30/1/24 35/2/34 9/3/33
f 30/1/24 27/2/15 35/3/34
f 27/1/15 8/2/30 35/3/34
f 32/1/25 36/2/37 10/3/36
f 32/1/25 29/2/18 36/3/37
f 29/1/18 9/2/33 36/3/37
f 24/1/26 37/2/40 11/3/39
f 24/1/26 31/2/21 37/3/40
f 31/1/21 10/2/36 37/3/40
f 38/1/29 39/2/41 12/3/42
f 38/1/29 33/2/28 39/3/41
f 33/1/28 11/2/39 39/3/41
f 40/1/32 38/2/29 12/3/42
f 40/1/32 34/2/31 38/3/29
f 34/1/31 7/2/27 38/3/29
f 41/1/35 40/2/32 12/3/42
f 41/1/35 35/2/34 40/3/32
f 35/1/34 8/2/30 40/3/32
f 42/1/38 41/2/35 12/3/42
f 42/1/38 36/2/37 41/3/35
f 36/1/37 9/2/33 41/3/35
f 39/1/41 42/2/38 12/3/42
f 39/1/41 37/2/40 42/3/38
f 37/1/40 10/2/36 42/3/38
