# Blender v2.56 (sub 0) OBJ File: 'Sphere.blend'
# www.blender.org
mtllib Sphere.mtl
o Icosphere
v 0.000000 -1.000000 0.000000
v 0.723600 -0.447215 0.525720
v -0.276385 -0.447215 0.850640
v -0.894425 -0.447215 0.000000
v -0.276385 -0.447215 -0.850640
v 0.723600 -0.447215 -0.525720
v 0.276385 0.447215 0.850640
v -0.723600 0.447215 0.525720
v -0.723600 0.447215 -0.525720
v 0.276385 0.447215 -0.850640
v 0.894425 0.447215 -0.000000
v 0.000000 1.000000 -0.000000
v 0.425323 -0.850654 0.309011
v -0.162456 -0.850654 0.499995
v 0.262869 -0.525738 0.809012
v 0.425323 -0.850654 -0.309011
v 0.850648 -0.525736 0.000000
v -0.525730 -0.850652 0.000000
v -0.688189 -0.525736 0.499997
v -0.162456 -0.850654 -0.499995
v -0.688189 -0.525736 -0.499997
v 0.262869 -0.525738 -0.809012
v 0.951058 -0.000000 -0.309013
v 0.951058 0.000000 0.309013
v 0.587786 0.000000 0.809017
v 0.000000 0.000000 1.000000
v -0.587786 0.000000 0.809017
v -0.951058 0.000000 0.309013
v -0.951058 -0.000000 -0.309013
v -0.587786 -0.000000 -0.809017
v 0.000000 -0.000000 -1.000000
v 0.587786 -0.000000 -0.809017
v 0.688189 0.525736 0.499997
v -0.262869 0.525738 0.809012
v -0.850648 0.525736 -0.000000
v -0.262869 0.525738 -0.809012
v 0.688189 0.525736 -0.499997
v 0.525730 0.850652 -0.000000
v 0.162456 0.850654 0.499995
v -0.425323 0.850654 0.309011
v -0.425323 0.850654 -0.309011
v 0.162456 0.850654 -0.499995
vt 0.842122 0.664596
vt 0.954339 0.664596
vt 0.898230 0.746446
vt 0.217034 0.375916
vt 0.116309 0.434070
vt 0.116309 0.317763
vt 0.739569 0.842098
vt 0.776551 0.746446
vt 0.842122 0.842098
vt 0.547708 0.687882
vt 0.643638 0.650793
vt 0.643638 0.753644
vt 0.869066 0.448445
vt 0.785114 0.390895
vt 0.869066 0.333344
vt 0.348922 0.333344
vt 0.449647 0.391496
vt 0.348922 0.449651
vt 0.902182 0.100007
vt 0.800398 0.100007
vt 0.865477 0.005071
vt 0.668808 0.418177
vt 0.726961 0.333344
vt 0.785114 0.418177
vt 0.232614 0.614700
vt 0.348922 0.614700
vt 0.290769 0.699533
vt 0.100728 0.360333
vt 0.000002 0.418488
vt 0.000002 0.302180
vt 0.925174 0.366595
vt 0.981283 0.448445
vt 0.625931 0.223958
vt 0.728783 0.223958
vt 0.691693 0.319889
vt 0.465229 0.746725
vt 0.400150 0.841661
vt 0.363444 0.746725
vt 0.333341 0.333344
vt 0.232615 0.275191
vt 0.333341 0.217036
vt 0.605862 0.565960
vt 0.664016 0.650793
vt 0.547708 0.650793
vt 0.182072 0.646176
vt 0.219161 0.742107
vt 0.116309 0.742107
vt 0.837945 0.449651
vt 0.772375 0.545304
vt 0.735393 0.449651
vt 0.232615 0.434069
vt 0.290769 0.333344
vt 0.348922 0.434069
vt 0.837945 0.548886
vt 0.930503 0.513101
vt 0.780323 0.565961
vt 0.722169 0.650793
vt 0.664016 0.565961
vt 0.400040 0.936319
vt 0.363444 0.841661
vt 0.464928 0.841661
vt 0.174462 0.217036
vt 0.232615 0.317763
vt 0.618084 0.203579
vt 0.618084 0.100727
vt 0.714015 0.166488
vt 0.804457 0.936757
vt 0.841053 0.842098
vt 0.036983 0.812315
vt 0.000002 0.716660
vt 0.102555 0.716660
vt 0.217035 0.100727
vt 0.217035 0.217036
vt 0.116309 0.158883
vt 0.529998 0.319889
vt 0.529998 0.217037
vt 0.625931 0.282798
vt 0.348922 0.661893
vt 0.348922 0.545584
vt 0.433755 0.603737
vt 0.910531 0.650793
vt 0.875258 0.559556
vt 0.973076 0.559556
vt 0.171617 0.434070
vt 0.226925 0.529867
vt 0.116309 0.529867
vt 0.434066 0.217036
vt 0.529998 0.254126
vt 0.434066 0.319889
vt 0.816568 0.165616
vt 0.911226 0.100727
vt 0.911226 0.202213
vt 0.936780 0.811334
vt 0.842122 0.847932
vt 0.842122 0.746446
vt 0.114767 0.418488
vt 0.057385 0.517876
vt 0.451775 0.449651
vt 0.414684 0.545584
vt 0.964727 0.008770
vt 1.000000 0.100007
vt 0.618084 0.217036
vt 0.533251 0.158880
vt 0.058155 0.100727
vt 0.000000 0.000000
vt 0.116308 0.000000
vt 0.523382 0.015892
vt 0.581537 0.100726
vt 0.465229 0.100726
vt 0.765763 0.223958
vt 0.831335 0.319612
vt 0.728783 0.319612
vt 0.003671 0.998210
vt 0.066215 0.906973
vt 0.101489 0.998210
vt 0.533251 0.100728
vt 0.475868 0.200116
vt 0.418487 0.100727
vt 0.831335 0.325445
vt 0.831335 0.223958
vt 0.925993 0.288848
vt 0.449647 0.333344
vt 0.552500 0.333344
vt 0.515409 0.429276
vt 0.697846 0.100725
vt 0.763418 0.005071
vt 0.800398 0.100725
vt 0.232616 0.000000
vt 0.174461 0.100727
vt 0.116309 0.588023
vt 0.201142 0.529867
vt 0.201142 0.646176
vt 0.290769 0.529866
vt 0.936780 0.949416
vt 0.842122 0.884528
vt 0.936780 0.847932
vt 0.058156 0.201454
vt 0.116309 0.302180
vt 0.116309 0.837760
vt 0.217795 0.837760
vt 0.152904 0.932416
vt 0.547706 0.618264
vt 0.451775 0.655356
vt 0.451775 0.552504
vt 0.547708 0.565960
vt 0.547708 0.449651
vt 0.632541 0.507807
vt 0.000000 0.100727
vt 0.116309 0.100727
vt 0.058153 0.201454
vt 0.816568 0.100727
vt 0.779588 0.196381
vt 0.714015 0.100727
vt 0.095934 0.583639
vt 0.000002 0.620730
vt 0.000002 0.517876
vt 0.000002 0.906973
vt 0.064891 0.812315
vt 0.101489 0.906973
vt 0.348922 0.529866
vt 0.238306 0.529866
vt 0.293614 0.434069
vt 0.641751 0.868745
vt 0.739569 0.868745
vt 0.677024 0.959981
vt 0.547708 0.486742
vt 0.581537 0.100725
vt 0.639691 0.015892
vt 0.317761 0.100727
vt 0.317761 0.217034
vt 0.217035 0.158881
vt 0.037092 0.620730
vt 0.102854 0.716660
vt 0.655616 0.868745
vt 0.655616 0.753644
vt 0.739569 0.811194
vt 0.640266 0.912029
vt 0.547708 0.947815
vt 0.547708 0.848580
vt 0.290770 0.000000
vt 0.348923 0.100726
vt 0.232616 0.100726
vt 0.407076 0.746725
vt 0.465229 0.661893
vt 0.181880 0.837760
vt 0.218862 0.742107
vt 0.875258 0.549008
vt 0.875258 0.650793
vt 0.780323 0.614089
vt 0.407076 0.100726
vt 0.348923 0.000000
vt 0.465229 0.000000
vt 0.348922 0.784365
vt 0.232616 0.784365
vt 0.283843 0.784365
vt 0.348922 0.879302
vt 0.247139 0.879302
vt 0.805140 0.650793
vt 0.739569 0.746446
vt 0.434066 0.275189
vt 0.739569 0.650793
vt 0.739569 0.753644
vt 0.643638 0.687882
vt 0.359356 0.879302
vt 0.303248 0.961151
vt 0.584413 0.848580
vt 0.547708 0.753644
vt 0.649492 0.753644
vt 0.418487 0.158880
vt 0.317762 0.217035
vt 0.632541 0.449651
vt 0.669630 0.545582
vt 0.668808 0.333344
vt 0.610653 0.418177
vn 0.471317 -0.661687 0.583121
vn 0.187594 -0.794658 0.577345
vn -0.038547 -0.661687 0.748789
vn 0.102381 -0.943523 0.315090
vn 0.700228 -0.661688 0.268049
vn 0.607060 -0.794656 0.000000
vn 0.700228 -0.661688 -0.268049
vn 0.331305 -0.943524 0.000000
vn -0.408939 -0.661686 0.628443
vn -0.491119 -0.794657 0.356821
vn -0.724044 -0.661694 0.194734
vn -0.268034 -0.943523 0.194737
vn -0.724044 -0.661694 -0.194734
vn -0.491119 -0.794657 -0.356821
vn -0.408939 -0.661686 -0.628443
vn -0.268034 -0.943523 -0.194737
vn -0.038547 -0.661687 -0.748789
vn 0.187594 -0.794658 -0.577345
vn 0.471317 -0.661687 -0.583121
vn 0.102381 -0.943523 -0.315090
vn 0.904981 -0.330393 0.268049
vn 0.982246 -0.187599 0.000000
vn 0.992077 0.125631 -0.000000
vn 0.904981 -0.330393 -0.268049
vn 0.024726 -0.330395 0.943519
vn 0.303531 -0.187597 0.934171
vn 0.306568 0.125651 0.943519
vn 0.534590 -0.330395 0.777851
vn -0.889698 -0.330386 0.315092
vn -0.794656 -0.187595 0.577348
vn -0.802607 0.125648 0.583125
vn -0.574584 -0.330397 0.748793
vn -0.574584 -0.330397 -0.748793
vn -0.794656 -0.187595 -0.577348
vn -0.802607 0.125648 -0.583125
vn -0.889698 -0.330386 -0.315092
vn 0.534590 -0.330395 -0.777851
vn 0.303531 -0.187597 -0.934171
vn 0.306568 0.125651 -0.943519
vn 0.024726 -0.330395 -0.943519
vn 0.889698 0.330386 0.315092
vn 0.794656 0.187595 0.577348
vn 0.574584 0.330397 0.748793
vn 0.802607 -0.125648 0.583125
vn -0.024726 0.330395 0.943519
vn -0.303531 0.187597 0.934171
vn -0.534590 0.330395 0.777851
vn -0.306568 -0.125651 0.943519
vn -0.904981 0.330393 0.268049
vn -0.982246 0.187599 0.000000
vn -0.904981 0.330393 -0.268049
vn -0.992077 -0.125631 0.000000
vn -0.534590 0.330395 -0.777851
vn -0.303531 0.187597 -0.934171
vn -0.024726 0.330395 -0.943519
vn -0.306568 -0.125651 -0.943519
vn 0.574584 0.330397 -0.748794
vn 0.794656 0.187595 -0.577348
vn 0.889698 0.330386 -0.315092
vn 0.802607 -0.125648 -0.583125
vn 0.408939 0.661686 0.628443
vn 0.491119 0.794658 0.356821
vn 0.268034 0.943523 0.194736
vn 0.724044 0.661694 0.194734
vn -0.471317 0.661687 0.583121
vn -0.187594 0.794658 0.577345
vn -0.102381 0.943523 0.315090
vn 0.038547 0.661687 0.748789
vn -0.700228 0.661687 -0.268049
vn -0.607060 0.794656 0.000000
vn -0.331305 0.943524 0.000000
vn -0.700228 0.661688 0.268049
vn 0.038547 0.661687 -0.748789
vn -0.187594 0.794658 -0.577345
vn -0.102381 0.943523 -0.315090
vn -0.471317 0.661687 -0.583121
vn 0.724044 0.661694 -0.194734
vn 0.491119 0.794657 -0.356821
vn 0.268034 0.943523 -0.194736
vn 0.408939 0.661686 -0.628443
usemtl (null)
s off
f 15/1/1 13/2/1 2/3/1
f 13/4/2 15/5/2 14/6/2
f 3/7/3 14/8/3 15/9/3
f 14/10/4 1/11/4 13/12/4
f 17/13/5 2/14/5 13/15/5
f 13/16/6 16/17/6 17/18/6
f 6/19/7 17/20/7 16/21/7
f 13/22/8 1/23/8 16/24/8
f 19/25/9 14/26/9 3/27/9
f 14/28/10 19/29/10 18/30/10
f 4/31/11 18/32/11 19/13/11
f 18/33/12 1/34/12 14/35/12
f 21/36/13 18/37/13 4/38/13
f 18/39/14 21/40/14 20/41/14
f 5/42/15 20/43/15 21/44/15
f 20/45/16 1/46/16 18/47/16
f 22/48/17 20/49/17 5/50/17
f 20/51/18 22/52/18 16/53/18
f 6/54/19 16/48/19 22/55/19
f 16/56/20 1/57/20 20/58/20
f 24/59/21 2/60/21 17/61/21
f 17/62/22 23/63/22 24/6/22
f 11/64/23 24/65/23 23/66/23
f 23/67/24 17/7/24 6/68/24
f 26/69/25 3/70/25 15/71/25
f 15/72/26 25/73/26 26/74/26
f 7/75/27 26/76/27 25/77/27
f 25/78/28 15/79/28 2/80/28
f 28/81/29 4/82/29 19/83/29
f 19/84/30 27/85/30 28/86/30
f 8/87/31 28/88/31 27/89/31
f 27/90/32 19/91/32 3/92/32
f 30/93/33 5/94/33 21/95/33
f 21/29/34 29/96/34 30/97/34
f 9/98/35 30/99/35 29/18/35
f 29/19/36 21/100/36 4/101/36
f 32/102/37 6/103/37 22/65/37
f 22/104/38 31/105/38 32/106/38
f 10/107/39 32/108/39 31/109/39
f 31/110/40 22/111/40 5/112/40
f 33/113/41 24/114/41 11/115/41
f 24/116/42 33/117/42 25/118/42
f 7/119/43 25/120/43 33/121/43
f 25/122/44 2/123/44 24/124/44
f 34/125/45 26/126/45 7/127/45
f 26/128/46 34/129/46 27/106/46
f 8/130/47 27/131/47 34/132/47
f 27/25/48 3/133/48 26/26/48
f 35/134/49 28/135/49 8/136/49
f 28/30/50 35/137/50 29/138/50
f 9/139/51 29/140/51 35/141/51
f 29/142/52 4/143/52 28/144/52
f 36/145/53 30/146/53 9/147/53
f 30/148/54 36/149/54 31/150/54
f 10/151/55 31/152/55 36/153/55
f 31/154/56 5/155/56 30/156/56
f 37/157/57 32/158/57 10/159/57
f 32/160/58 37/161/58 23/162/58
f 11/163/59 23/164/59 37/165/59
f 23/144/60 6/98/60 32/166/60
f 39/167/61 7/168/61 33/125/61
f 33/169/62 38/170/62 39/171/62
f 12/70/63 39/172/63 38/173/63
f 38/174/64 33/175/64 11/176/64
f 40/177/65 8/178/65 34/179/65
f 34/180/66 39/181/66 40/182/66
f 12/183/67 40/78/67 39/184/67
f 39/185/68 34/47/68 7/186/68
f 41/187/69 9/188/69 35/189/69
f 35/190/70 40/191/70 41/192/70
f 12/27/71 41/193/71 40/194/71
f 40/195/72 35/196/72 8/197/72
f 42/198/73 10/95/73 36/199/73
f 36/39/74 41/41/74 42/200/74
f 12/201/75 42/202/75 41/203/75
f 41/197/76 36/204/76 9/205/76
f 38/206/77 11/207/77 37/208/77
f 37/209/78 42/210/78 38/169/78
f 12/211/79 38/50/79 42/212/79
f 42/123/80 37/213/80 10/214/80
